<svg width="16" height="12" viewBox="0 0 16 12" fill="none" xmlns="http://www.w3.org/2000/svg">
<rect width="16" height="12" fill="#1E1E1E"/>
<g id="Perfect Dry LP">
<rect width="1920" height="6834" transform="translate(-960 -3325)" fill="white"/>
<g id="Group 24">
<g id="Group">
<path id="Vector" fill-rule="evenodd" clip-rule="evenodd" d="M15.1595 0.833178C15.3704 1.04415 15.4889 1.33024 15.4889 1.62855C15.4889 1.92686 15.3704 2.21296 15.1595 2.42393L6.72727 10.8562C6.61584 10.9676 6.48354 11.0561 6.33793 11.1164C6.19232 11.1767 6.03625 11.2077 5.87864 11.2077C5.72104 11.2077 5.56497 11.1767 5.41936 11.1164C5.27375 11.0561 5.14145 10.9676 5.03002 10.8562L0.84052 6.66743C0.733071 6.56365 0.647366 6.43951 0.588406 6.30226C0.529445 6.165 0.498411 6.01738 0.497113 5.868C0.495815 5.71863 0.524279 5.57049 0.580845 5.43223C0.637411 5.29397 0.720946 5.16836 0.826575 5.06273C0.932205 4.9571 1.05781 4.87357 1.19607 4.817C1.33433 4.76044 1.48247 4.73197 1.63185 4.73327C1.78122 4.73457 1.92885 4.7656 2.0661 4.82456C2.20335 4.88352 2.32749 4.96923 2.43127 5.07668L5.87827 8.52368L13.568 0.833178C13.6725 0.728635 13.7965 0.645704 13.9331 0.589122C14.0696 0.532541 14.216 0.503418 14.3638 0.503418C14.5116 0.503418 14.6579 0.532541 14.7945 0.589122C14.931 0.645704 15.055 0.728635 15.1595 0.833178Z" fill="#D2292D"/>
</g>
</g>
</g>
</svg>
