<svg width="14" height="24" viewBox="0 0 14 24" fill="none" xmlns="http://www.w3.org/2000/svg">
<path opacity="0.3" fill-rule="evenodd" clip-rule="evenodd" d="M0.534487 13.2966C0.192256 12.9586 1.00535e-06 12.5001 1.04714e-06 12.0222C1.08892e-06 11.5442 0.192256 11.0857 0.534487 10.7477L10.8614 0.550317C11.0298 0.378149 11.2313 0.240822 11.454 0.146349C11.6767 0.051874 11.9162 0.0021494 12.1586 6.85036e-05C12.401 -0.00201049 12.6414 0.0435981 12.8657 0.134235C13.0901 0.224873 13.2939 0.358723 13.4653 0.527975C13.6367 0.697227 13.7723 0.898491 13.8641 1.12003C13.9559 1.34156 14.002 1.57893 13.9999 1.81828C13.9978 2.05763 13.9475 2.29417 13.8518 2.51409C13.7561 2.73402 13.617 2.93293 13.4427 3.09921L4.4064 12.0222L13.4427 20.9451C13.7752 21.2851 13.9592 21.7404 13.9551 22.2131C13.9509 22.6857 13.7589 23.1378 13.4205 23.472C13.082 23.8062 12.6241 23.9958 12.1455 23.9999C11.6668 24.004 11.2057 23.8223 10.8614 23.494L0.534487 13.2966Z" fill="black"/>
</svg>
