<svg width="14" height="24" viewBox="0 0 14 24" fill="none" xmlns="http://www.w3.org/2000/svg">
<path id="Vector" fill-rule="evenodd" clip-rule="evenodd" d="M13.4655 10.7034C13.8077 11.0414 14 11.4999 14 11.9778C14 12.4558 13.8077 12.9143 13.4655 13.2523L3.13858 23.4497C2.97019 23.6219 2.76875 23.7592 2.54603 23.8537C2.32331 23.9481 2.08377 23.9979 1.84138 23.9999C1.59899 24.002 1.3586 23.9564 1.13425 23.8658C0.909906 23.7751 0.706083 23.6413 0.53468 23.472C0.363278 23.3028 0.227728 23.1015 0.135939 22.88C0.0441508 22.6584 -0.00203738 22.4211 6.8926e-05 22.1817C0.00217523 21.9424 0.0525344 21.7058 0.148208 21.4859C0.243881 21.266 0.382952 21.0671 0.557307 20.9008L9.5936 11.9778L0.557307 3.05491C0.224775 2.71493 0.0407738 2.25959 0.0449331 1.78695C0.0490924 1.31431 0.241079 0.862192 0.579544 0.527973C0.918009 0.193754 1.37587 0.00417525 1.85452 6.81436e-05C2.33316 -0.00403897 2.79429 0.177654 3.13858 0.506015L13.4655 10.7034Z" fill="black"/>
</svg>
